<svg width="401" height="548" viewBox="0 0 401 548" fill="none" xmlns="http://www.w3.org/2000/svg">
<path fill-rule="evenodd" clip-rule="evenodd" d="M29 0C12.9837 0 0 12.9837 0 29V86C7.05307 86.0001 12.8267 91.7378 13.2984 99H15.9464V101H13.2932C12.7861 108.226 7.02831 113.924 0 113.924V519C0 535.016 12.9837 548 29 548H372C388.016 548 401 535.016 401 519V113.919C400.89 113.922 400.781 113.924 400.67 113.924C393.816 113.924 388.2 108.226 387.706 101H385.952V99H387.701C388.161 91.7377 393.792 86 400.67 86C400.732 86 400.793 86.0005 400.855 86.0014C400.903 86.0021 400.952 86.0031 401 86.0044V29C401 12.9837 388.016 0 372 0H29ZM19.9249 101H23.9035V99H19.9249V101ZM27.882 101H31.8606V99H27.882V101ZM35.8392 101H39.8177V99H35.8392V101ZM43.7963 101H47.7748V99H43.7963V101ZM51.7534 101H55.7319V99H51.7534V101ZM59.7105 101H63.689V99H59.7105V101ZM67.6676 101H71.6461V99H67.6676V101ZM75.6247 101H79.6032V99H75.6247V101ZM83.5818 101H87.5604V99H83.5818V101ZM91.5389 101H95.5175V99H91.5389V101ZM99.496 101H103.475V99H99.496V101ZM107.453 101H111.432V99H107.453V101ZM115.41 101H119.389V99H115.41V101ZM123.367 101H127.346V99H123.367V101ZM131.324 101H135.303V99H131.324V101ZM139.282 101H143.26V99H139.282V101ZM147.239 101H151.217V99H147.239V101ZM155.196 101H159.174V99H155.196V101ZM163.153 101H167.132V99H163.153V101ZM171.11 101H175.089V99H171.11V101ZM179.067 101H183.046V99H179.067V101ZM187.024 101H191.003V99H187.024V101ZM194.981 101H198.96V99H194.981V101ZM202.939 101H206.917V99H202.939V101ZM210.896 101H214.874V99H210.896V101ZM218.853 101H222.831V99H218.853V101ZM226.81 101H230.788V99H226.81V101ZM234.767 101H238.746V99H234.767V101ZM242.724 101H246.703V99H242.724V101ZM250.681 101H254.66V99H250.681V101ZM258.638 101H262.617V99H258.638V101ZM266.596 101H270.574V99H266.596V101ZM274.553 101H278.531V99H274.553V101ZM282.51 101H286.488V99H282.51V101ZM290.467 101H294.445V99H290.467V101ZM298.424 101H302.402V99H298.424V101ZM306.381 101H310.36V99H306.381V101ZM314.338 101H318.317V99H314.338V101ZM322.295 101H326.274V99H322.295V101ZM330.252 101H334.231V99H330.252V101ZM338.209 101H342.188V99H338.209V101ZM346.166 101H350.145V99H346.166V101ZM354.124 101H358.102V99H354.124V101ZM362.081 101H366.059V99H362.081V101ZM370.038 101H374.016V99H370.038V101ZM377.995 101H381.973V99H377.995V101Z" fill="#323232"/>
<path fill-rule="evenodd" clip-rule="evenodd" d="M29 0C12.9837 0 0 12.9837 0 29V86C7.05307 86.0001 12.8267 91.7378 13.2984 99H15.9464V101H13.2932C12.7861 108.226 7.02831 113.924 0 113.924V519C0 535.016 12.9837 548 29 548H372C388.016 548 401 535.016 401 519V113.919C400.89 113.922 400.781 113.924 400.67 113.924C393.816 113.924 388.2 108.226 387.706 101H385.952V99H387.701C388.161 91.7377 393.792 86 400.67 86C400.732 86 400.793 86.0005 400.855 86.0014C400.903 86.0021 400.952 86.0031 401 86.0044V29C401 12.9837 388.016 0 372 0H29ZM19.9249 101H23.9035V99H19.9249V101ZM27.882 101H31.8606V99H27.882V101ZM35.8392 101H39.8177V99H35.8392V101ZM43.7963 101H47.7748V99H43.7963V101ZM51.7534 101H55.7319V99H51.7534V101ZM59.7105 101H63.689V99H59.7105V101ZM67.6676 101H71.6461V99H67.6676V101ZM75.6247 101H79.6032V99H75.6247V101ZM83.5818 101H87.5604V99H83.5818V101ZM91.5389 101H95.5175V99H91.5389V101ZM99.496 101H103.475V99H99.496V101ZM107.453 101H111.432V99H107.453V101ZM115.41 101H119.389V99H115.41V101ZM123.367 101H127.346V99H123.367V101ZM131.324 101H135.303V99H131.324V101ZM139.282 101H143.26V99H139.282V101ZM147.239 101H151.217V99H147.239V101ZM155.196 101H159.174V99H155.196V101ZM163.153 101H167.132V99H163.153V101ZM171.11 101H175.089V99H171.11V101ZM179.067 101H183.046V99H179.067V101ZM187.024 101H191.003V99H187.024V101ZM194.981 101H198.96V99H194.981V101ZM202.939 101H206.917V99H202.939V101ZM210.896 101H214.874V99H210.896V101ZM218.853 101H222.831V99H218.853V101ZM226.81 101H230.788V99H226.81V101ZM234.767 101H238.746V99H234.767V101ZM242.724 101H246.703V99H242.724V101ZM250.681 101H254.66V99H250.681V101ZM258.638 101H262.617V99H258.638V101ZM266.596 101H270.574V99H266.596V101ZM274.553 101H278.531V99H274.553V101ZM282.51 101H286.488V99H282.51V101ZM290.467 101H294.445V99H290.467V101ZM298.424 101H302.402V99H298.424V101ZM306.381 101H310.36V99H306.381V101ZM314.338 101H318.317V99H314.338V101ZM322.295 101H326.274V99H322.295V101ZM330.252 101H334.231V99H330.252V101ZM338.209 101H342.188V99H338.209V101ZM346.166 101H350.145V99H346.166V101ZM354.124 101H358.102V99H354.124V101ZM362.081 101H366.059V99H362.081V101ZM370.038 101H374.016V99H370.038V101ZM377.995 101H381.973V99H377.995V101Z" fill="url(#paint0_linear_27_23)"/>
<defs>
<linearGradient id="paint0_linear_27_23" x1="200.5" y1="0" x2="201.109" y2="739.393" gradientUnits="userSpaceOnUse">
<stop stop-color="white"/>
<stop offset="0.0001" stop-color="#F7F7F7" stop-opacity="0.994193"/>
<stop offset="0.9999" stop-color="white" stop-opacity="0.830357"/>
<stop offset="1" stop-color="#F5F5F5" stop-opacity="0"/>
</linearGradient>
</defs>
</svg>
