<svg width="320" height="548" viewBox="0 0 320 548" fill="none" xmlns="http://www.w3.org/2000/svg">
<path fill-rule="evenodd" clip-rule="evenodd" d="M29 0C12.9837 0 0 12.9837 0 29V72.0024C5.70068 72.1165 10.4279 76.3716 11.5247 82H14.7605V84H11.7553C11.7616 84.1659 11.7647 84.3325 11.7647 84.5C11.7647 91.3217 6.51884 96.8671 0 96.9976V519C0 535.016 12.9837 548 29 548H291C307.016 548 320 535.016 320 519V96C313.533 96 308.261 90.6718 308.009 84H305.956V82H308.086C308.797 75.8037 313.86 71 320 71V29C320 12.9837 307.016 0 291 0H29ZM18.7495 84H22.7385V82H18.7495V84ZM26.7274 84H30.7164V82H26.7274V84ZM34.7054 84H38.6944V82H34.7054V84ZM42.6834 84H46.6724V82H42.6834V84ZM50.6613 84H54.6503V82H50.6613V84ZM58.6393 84H62.6283V82H58.6393V84ZM66.6173 84H70.6063V82H66.6173V84ZM74.5952 84H78.5842V82H74.5952V84ZM82.5732 84H86.5622V82H82.5732V84ZM90.5512 84H94.5402V82H90.5512V84ZM98.5291 84H102.518V82H98.5291V84ZM106.507 84H110.496V82H106.507V84ZM114.485 84H118.474V82H114.485V84ZM122.463 84H126.452V82H122.463V84ZM130.441 84H134.43V82H130.441V84ZM138.419 84H142.408V82H138.419V84ZM146.397 84H150.386V82H146.397V84ZM154.375 84H158.364V82H154.375V84ZM162.353 84H166.342V82H162.353V84ZM170.331 84H174.32V82H170.331V84ZM178.309 84H182.298V82H178.309V84ZM186.287 84H190.276V82H186.287V84ZM194.265 84H198.254V82H194.265V84ZM202.243 84H206.232V82H202.243V84ZM210.221 84H214.21V82H210.221V84ZM218.199 84H222.188V82H218.199V84ZM226.177 84H230.166V82H226.177V84ZM234.155 84H238.144V82H234.155V84ZM242.133 84H246.122V82H242.133V84ZM250.111 84H254.099V82H250.111V84ZM258.088 84H262.077V82H258.088V84ZM266.066 84H270.055V82H266.066V84ZM274.044 84H278.033V82H274.044V84ZM282.022 84H286.011V82H282.022V84ZM290 84H293.989V82H290V84ZM297.978 84H301.967V82H297.978V84Z" fill="#323232"/>
<path fill-rule="evenodd" clip-rule="evenodd" d="M29 0C12.9837 0 0 12.9837 0 29V72.0024C5.70068 72.1165 10.4279 76.3716 11.5247 82H14.7605V84H11.7553C11.7616 84.1659 11.7647 84.3325 11.7647 84.5C11.7647 91.3217 6.51884 96.8671 0 96.9976V519C0 535.016 12.9837 548 29 548H291C307.016 548 320 535.016 320 519V96C313.533 96 308.261 90.6718 308.009 84H305.956V82H308.086C308.797 75.8037 313.86 71 320 71V29C320 12.9837 307.016 0 291 0H29ZM18.7495 84H22.7385V82H18.7495V84ZM26.7274 84H30.7164V82H26.7274V84ZM34.7054 84H38.6944V82H34.7054V84ZM42.6834 84H46.6724V82H42.6834V84ZM50.6613 84H54.6503V82H50.6613V84ZM58.6393 84H62.6283V82H58.6393V84ZM66.6173 84H70.6063V82H66.6173V84ZM74.5952 84H78.5842V82H74.5952V84ZM82.5732 84H86.5622V82H82.5732V84ZM90.5512 84H94.5402V82H90.5512V84ZM98.5291 84H102.518V82H98.5291V84ZM106.507 84H110.496V82H106.507V84ZM114.485 84H118.474V82H114.485V84ZM122.463 84H126.452V82H122.463V84ZM130.441 84H134.43V82H130.441V84ZM138.419 84H142.408V82H138.419V84ZM146.397 84H150.386V82H146.397V84ZM154.375 84H158.364V82H154.375V84ZM162.353 84H166.342V82H162.353V84ZM170.331 84H174.32V82H170.331V84ZM178.309 84H182.298V82H178.309V84ZM186.287 84H190.276V82H186.287V84ZM194.265 84H198.254V82H194.265V84ZM202.243 84H206.232V82H202.243V84ZM210.221 84H214.21V82H210.221V84ZM218.199 84H222.188V82H218.199V84ZM226.177 84H230.166V82H226.177V84ZM234.155 84H238.144V82H234.155V84ZM242.133 84H246.122V82H242.133V84ZM250.111 84H254.099V82H250.111V84ZM258.088 84H262.077V82H258.088V84ZM266.066 84H270.055V82H266.066V84ZM274.044 84H278.033V82H274.044V84ZM282.022 84H286.011V82H282.022V84ZM290 84H293.989V82H290V84ZM297.978 84H301.967V82H297.978V84Z" fill="url(#paint0_linear_28_24)"/>
<defs>
<linearGradient id="paint0_linear_28_24" x1="160" y1="0" x2="160.764" y2="739.392" gradientUnits="userSpaceOnUse">
<stop stop-color="white"/>
<stop offset="0.0001" stop-color="#F7F7F7" stop-opacity="0.994193"/>
<stop offset="0.9999" stop-color="white" stop-opacity="0.830357"/>
<stop offset="1" stop-color="#F5F5F5" stop-opacity="0"/>
</linearGradient>
</defs>
</svg>
